<svg width="22" height="41" viewBox="0 0 22 41" fill="none" xmlns="http://www.w3.org/2000/svg">
<path d="M5.10641 41.0231C4.20215 40.8345 2.98939 39.3249 3.42556 38.3926C3.64896 37.9264 3.98939 37.6267 4.32981 37.2605C4.72343 36.8498 4.9362 36.3059 4.9362 35.7288C4.9362 34.4856 3.96811 33.4756 2.77662 33.4756C1.75535 33.4756 0.904282 34.2081 0.680878 35.196C0.521304 35.6511 0.510666 36.206 0.638325 36.8498C1.00003 38.3371 1.63833 39.225 2.54258 40.002C3.1596 40.5348 4.17024 40.8788 5.12769 41.0564C5.11705 41.0453 5.10641 41.0342 5.10641 41.0231Z" fill="#ffffff"/>
<path d="M21.8724 22.7648C21.6064 21.0999 20.9043 19.6681 19.7553 18.4916C18.6064 17.315 17.2234 16.638 15.6064 16.4604L15.5958 16.3827C16.9149 16.2606 18.0213 15.9054 18.9043 15.3282C19.7873 14.7511 20.4256 14.0296 20.7979 13.1528C21.1702 12.2759 21.2766 11.3436 21.117 10.3335C20.8617 8.69084 19.9681 7.38112 18.4468 6.42658C17.0851 5.57193 15.2022 5.10575 12.8192 5.00586C15.1277 5.57193 16.8617 7.88059 16.8617 10.6443C16.8617 13.6633 14.7873 16.1496 12.1596 16.3938C12.2341 16.4049 12.3085 16.416 12.383 16.4271C15.2979 16.6158 17.6064 19.6681 17.6064 23.4086C17.6064 25.1623 17.0958 26.7606 16.2553 27.9926C15.7553 28.7918 15.1277 29.4022 14.3617 29.7907C13.7553 30.1459 13.0851 30.3568 12.383 30.4012V30.4123H14.7873C17.0639 30.4123 18.8085 29.8351 20.0213 28.6808C21.2234 27.5264 21.8724 26.1279 21.9681 24.4852C21.9681 23.8303 21.9468 23.2532 21.8724 22.7648Z" fill="#ffffff"/>
<path d="M5.60644 28.2146V5.00586H1.38303V28.148C1.37239 28.2368 1.36176 28.3367 1.36176 28.4366C1.36176 29.6464 2.3192 30.6342 3.48942 30.6342C4.67027 30.6342 5.61708 29.6464 5.61708 28.4366C5.61708 28.3589 5.61708 28.2812 5.60644 28.2146Z" fill="#ffffff"/>
<path d="M14.2234 0.0217285H4.91492L4.92556 0.698788V0.732086C4.93619 0.732086 4.94683 0.732086 4.95747 0.732086C6.40428 0.732086 7.53194 1.96411 7.53194 3.50692V3.64011C7.53194 4.51696 7.53194 5.30501 7.5213 6.18186C7.51066 8.51272 7.54258 10.8325 7.53194 13.1744C7.5213 16.0492 7.54258 18.9128 7.53194 21.7764C7.5213 24.5846 7.55322 27.3927 7.53194 30.2008C7.5213 32.3319 7.54258 34.5629 7.53194 36.6939C7.5213 37.9482 7.08513 41.0449 5.2979 41.0449C5.20215 41.0449 5.09577 41.0227 4.98939 40.9894C4.98939 41.0005 4.97875 41.0116 4.97875 41.0338C5.47875 41.1337 5.97875 41.1892 6.383 41.1892C7.28726 41.1892 8.14896 40.9339 8.96811 40.4233C9.78726 39.9128 10.4575 39.1691 10.9787 38.2146C11.5 37.26 11.7766 36.1168 11.8192 34.7849L11.7447 0.709888H14.2341V0.0217285H14.2234Z" fill="#ffffff"/>
</svg>